<?xml version="1.0" encoding="utf-8"?>
<!-- Generator: Adobe Illustrator 23.0.1, SVG Export Plug-In . SVG Version: 6.00 Build 0)  -->
<svg version="1.1" id="Layer_1" xmlns="http://www.w3.org/2000/svg" xmlns:xlink="http://www.w3.org/1999/xlink" x="0px" y="0px"
	 viewBox="0 0 595.28 841.89" style="enable-background:new 0 0 595.28 841.89;" xml:space="preserve">
<style type="text/css">
	.st0{fill:none;}
	.st1{fill:#8DC63F;stroke:#8DC63F;stroke-miterlimit:10;}
	.st2{fill:#FFFFFF;stroke:#FFFFFF;stroke-miterlimit:10;}
	.st3{fill:none;stroke:#8DC63F;stroke-miterlimit:10;}
</style>
<g>
	<path class="st0" d="M264.31,449.87c0-32.99,0-65.98,0-99.01c48.71,0,97.45,0,146.26,0c0,32.97,0,65.99,0,99.01
		C361.86,449.87,313.09,449.87,264.31,449.87z M338.37,371.65c-0.24-1.17-0.49-2.33-0.73-3.5c0.15-0.05,0.29-0.11,0.44-0.16
		c0.44,0.53,0.87,1.05,1.31,1.58c0.27-0.08,0.53-0.17,0.8-0.25c-0.39-1.66-0.77-3.32-1.03-4.43c-1.45,0-2.27,0-3.45,0
		c-1.6,2.21-1.67,2.68-0.34,4.69c0.39-0.56,0.75-1.07,1.19-1.7c0.4,1.58,0.73,2.9,1.07,4.23c-2.35,2.27-4.7,4.54-7.06,6.81
		c-0.17-0.12-0.34-0.25-0.51-0.37c0.22-1.65,0.44-3.3,0.66-4.96c-0.96-0.23-1.66-0.39-2.61-0.62c0,1.22,0,2.27,0,3.88
		c0.84-0.87,1.22-1.27,1.61-1.66c0.15,0.06,0.3,0.12,0.44,0.19c-0.24,1.06-0.48,2.13-0.73,3.23c-1.84-0.4-3.36-0.73-4.88-1.06
		c0.01-0.13,0.03-0.26,0.04-0.38c0.64-0.12,1.28-0.24,2.04-0.38c-2.1-2.04-3.19-2.05-6.82-0.17c1.41,2.57,2.76,3.09,5.71,2.57
		c1.29-0.23,2.67-0.04,4.59-0.04c-1.3,1.43-2.12,2.33-2.95,3.23c4.71-0.83,6.54-5.24,10.21-7.28c3.88,3.52,7.74,6.86,11.43,10.38
		c7.22,6.89,14.42,13.79,21.45,20.85c2.06,2.08,4.14,3.06,6.91,2.43c-1.18-0.54-2.47-1.14-3.77-1.74c0.08-0.22,0.15-0.45,0.23-0.67
		c3-0.08,6.62,1.77,8.43-2.22c-3.64-2.09-4.65-2.09-6.66-0.09c0.57,0.26,1.13,0.51,2.25,1.02c-2.18,0.35-3.72,0.6-5.54,0.89
		c-0.1-1.13-0.19-2.09-0.3-3.33c0.71,0.43,1.13,0.69,1.92,1.17c0-1.26,0-2.17,0-3.27c-0.99,0.17-1.75,0.3-2.61,0.45
		c0.09,1.28,0.16,2.38,0.23,3.4c-1.68-1.55-3.31-3.06-5.11-4.72c3.15-0.66,7.21,2.01,8.97-2.49c-3.53-1.88-4.81-1.86-6.82,0.2
		c0.72,0.19,1.35,0.36,1.99,0.53c0,0.13,0,0.26,0,0.39c-1.55,0.28-3.11,0.55-4.74,0.84c-0.35-1.14-0.66-2.18-0.97-3.22
		c-0.07,0.02-0.14,0.04-0.22,0.06c0.07,0.71,0.14,1.42,0.21,2.13c0.16-0.21,0.31-0.43,0.47-0.64c-1.96-1.51-3.92-3.01-5.89-4.52
		c1.85-0.29,3.49-0.07,5.14,0.05c2.06,0.16,3.25-0.94,4.18-2.75c-2.06-0.82-3.85-2.12-6.04-0.8c-0.36,0.22-0.6,0.63-0.92,0.99
		c0.67,0.25,1.19,0.44,1.71,0.63c-0.01,0.15-0.03,0.3-0.04,0.45c-1.46,0.23-2.92,0.46-4.67,0.73c-0.16-1.17-0.3-2.23-0.44-3.28
		c0.15-0.05,0.3-0.09,0.44-0.14c0.3,0.5,0.6,1,0.9,1.49c0.23-0.12,0.46-0.23,0.69-0.35c0-1.04,0-2.07,0-3.29
		c-1.15,0.28-1.91,0.47-2.79,0.69c0.18,1.45,0.35,2.77,0.61,4.78c-2.37-2.29-4.22-4.07-6.06-5.84c0.06-0.2,0.12-0.41,0.18-0.61
		c1.31,0.1,2.64,0.08,3.91,0.32c2.95,0.57,4.22,0.03,5.59-2.6c-3.99-1.97-5.29-1.9-6.82,0.38c0.55,0.18,1.1,0.35,1.64,0.52
		c-1.83,0.09-3.58,1.97-5.33,0.18c0.11-0.88,0.22-1.76,0.37-2.96c0.56,0.77,0.94,1.28,1.43,1.95c0.28-0.52,0.55-0.79,0.54-1.06
		c-0.03-0.74,0.02-1.58-0.35-2.17c-0.18-0.29-1.53-0.37-1.75-0.1c-0.4,0.49-0.46,1.32-0.48,2.01c-0.02,0.77,0.16,1.55,0.25,2.32
		c-0.21,0.19-0.57,0.56-0.59,0.54c-2.01-1.66-3.99-3.34-5.97-5.03c0.19-0.3,0.38-0.6,0.57-0.9c1.29,0,2.63-0.19,3.87,0.04
		c3.08,0.57,4.42,0.05,5.88-2.61c-4.07-1.8-5.06-1.77-6.9,0.32c0.73,0.11,1.4,0.22,2.07,0.32c-1.94,0.56-3.81,2.22-5.79,0.33
		c0.14-0.87,0.27-1.73,0.43-2.74c0.53,0.69,0.92,1.2,1.32,1.71c0.15-0.04,0.31-0.09,0.46-0.13c0-1.07,0-2.15,0-3.21
		c-2.39,0.05-3.27,0.78-2.33,2.77c0.22,0.46,0.09,1.07,0.12,1.6c0.09,0.38,0.19,0.76,0.28,1.14c-0.2,0.13-0.41,0.27-0.61,0.4
		c-2.13-2.33-4.26-4.65-6.4-6.98c0.27-0.13,0.53-0.26,0.82-0.38c1.52,0.22,3.06,0.33,4.54,0.67c2.56,0.6,4.1-0.52,5.36-2.47
		c-3.62-2.08-4.74-2.09-6.77-0.15c0.56,0.28,1.11,0.55,2.1,1.03C341.49,371.1,339.93,371.37,338.37,371.65z M329.59,388.84
		c1.19-1.66,1.3-4.7,4.85-3.34c-0.12,0.91-0.24,1.89-0.37,2.86c0.21,0.05,0.43,0.09,0.64,0.14c0.5-1.07,0.99-2.14,1.31-2.82
		c1.19-0.15,2.04-0.25,2.89-0.35c0.87,0.72-0.83,3.3,2.03,2.59c0.01,0.58-0.25,1.41,0.05,1.71c6.41,6.22,12.87,12.38,19.35,18.52
		c0.41,0.39,1.14,0.64,1.73,0.66c2.25,0.08,4.51,0.03,6.94,0.03c-0.24-0.42-0.31-0.65-0.46-0.8c-6.27-6.02-12.52-12.05-18.85-18.01
		c-0.63-0.59-1.79-1.12-2.59-1c-1.49,0.24-2.34,0.01-2.7-1.45c-0.01-0.03-0.93,0.15-1.41,0.21c1.12-4.85-2.83-6.82-5.3-9.14
		c-3.71,3.45-7.27,6.76-11.32,10.53c1.36-0.11,2.25-0.18,3.13-0.25c-0.86,0.3-1.72,0.61-2.59,0.89c-0.89,0.28-2.06,0.27-2.66,0.83
		c-5.73,5.33-11.36,10.76-17.02,16.16c-0.52,0.5-0.98,1.05-1.87,2.01c2.54,0,4.42,0.15,6.25-0.05c1.1-0.12,2.39-0.52,3.16-1.23
		c5.86-5.43,11.61-10.96,17.38-16.47c0.53-0.5,0.98-1.08,1.71-1.89C332.12,389.04,330.86,388.94,329.59,388.84z M297.41,408.69
		c3.1,0.91,5.25-0.55,7.32-2.71c3.09-3.22,6.43-6.21,9.67-9.3c3.17-3.04,6.39-6.03,9.48-9.15c0.75-0.75,1.07-1.89,1.83-3.3
		c-1.14,0.45-1.62,0.64-2.31,0.91c0.19-1.82,0.35-3.39,0.52-5.03c-1.06,0-1.76,0-2.82,0c0.09,1.11,0.17,2.1,0.27,3.45
		c0.77-0.69,1.16-1.04,1.88-1.69c-0.15,1.45-0.25,2.43-0.37,3.56c-1.77-0.34-3.28-0.63-5.22-1.01c1.05-0.38,1.64-0.6,2.33-0.85
		c-2.48-2.15-3.58-2.13-7.03-0.02c1.8,2.64,2.8,3,5.82,2.39c1.18-0.24,2.43-0.18,3.81-0.27c-2.17,2.13-4.03,3.96-5.93,5.83
		c0.14-1.41,0.28-2.77,0.43-4.25c-0.95-0.17-1.7-0.31-2.8-0.51c0.08,1.23,0.14,2.22,0.22,3.51c0.85-0.7,1.34-1.1,2.17-1.78
		c-0.3,1.56-0.51,2.66-0.73,3.8c-1.02-0.19-1.82-0.32-2.6-0.48c-0.71-0.14-1.42-0.29-2.12-0.44c0.02-0.15,0.03-0.3,0.05-0.45
		c0.55-0.16,1.1-0.32,1.75-0.51c-2.28-2.06-4.02-1.99-6.84,0.12c1.93,4.45,6.13,1.34,8.87,2.12c-1.82,1.79-3.54,3.49-5.22,5.15
		c0.08-0.54,0.18-1.16,0.27-1.78c-0.12-0.02-0.25-0.03-0.37-0.05c-0.19,1.04-0.38,2.08-0.58,3.22c-1.71-0.33-3.29-0.64-5.48-1.06
		c1.27-0.46,1.88-0.68,2.59-0.94c-2.42-1.93-4.5-1.79-6.85,0.23c1.89,4.19,5.82,1.58,8.74,2.2c-1.67,1.55-3.21,2.98-4.72,4.37
		c-0.06-0.98-0.13-2.04-0.2-3.18c-0.88-0.07-1.58-0.13-2.64-0.21c0.13,1.19,0.23,2.16,0.4,3.73c0.82-1.09,1.2-1.59,1.58-2.09
		c0.15,0.05,0.3,0.11,0.45,0.16c-0.23,1.14-0.45,2.28-0.7,3.54c-1.79-0.32-3.34-0.6-4.89-0.88c0.02-0.15,0.04-0.31,0.06-0.46
		c0.56-0.18,1.12-0.35,1.77-0.56c-2.22-2.01-3.49-1.96-6.68,0.15c1.75,4.05,5.51,1.89,8.45,2.26c0.05,0.23,0.1,0.46,0.15,0.69
		C299.88,407.65,298.58,408.2,297.41,408.69z M335.63,426.8c0-3.83,0-7.45,0-11.22c-0.89,0.08-1.57,0.14-2.51,0.22
		c0,2.14,0,4.12,0,6.21c-3.39-1.58-3.33-6.91-8.38-6.35c0,3.73,0,7.29,0,10.98c0.88,0,1.64,0,2.72,0c0-2.09,0-4.14,0-6.33
		C330.73,422.09,330.82,427.05,335.63,426.8z M291.2,420.87c-1.82,0-3.5,0-5.19,0c-0.15,0.2-0.3,0.39-0.45,0.59
		c0.75,0.62,1.5,1.24,2.33,1.92c-1.17,1.49-2.69,1.61-4.3,0.52c-1.51-1.02-1.7-3.34-0.54-4.84c1.29-1.67,3.01-1.57,5.73,0.39
		c0.59-0.4,1.22-0.82,1.85-1.24c-2.17-2.96-4.85-3.75-7.67-2.4c-2.65,1.27-3.96,4.56-2.98,7.43c0.87,2.54,3.66,4.33,6.18,3.98
		C289.37,426.76,291.27,424.48,291.2,420.87z M375.41,421.32c0.05-3.3-2.46-6.04-5.66-6.17c-3.26-0.13-6.06,2.66-6.06,6.04
		c0,3.29,2.59,5.99,5.8,6.05C372.67,427.3,375.36,424.6,375.41,421.32z M355.56,415.15c-3.19,0.04-5.85,2.66-5.85,5.75
		c0,3.19,2.84,5.88,6.09,5.76c3.15-0.12,5.85-2.86,5.77-5.86C361.46,417.73,358.69,415.11,355.56,415.15z M348.11,426.56
		c-0.94-1.41-1.88-2.81-2.86-4.28c1.75-1.07,2.72-2.44,1.97-4.37c-0.79-2.02-2.57-2.38-4.57-2.31c-1.19,0.05-2.39,0.01-3.7,0.01
		c0,3.82,0,7.36,0,10.98c0.93,0,1.75,0,2.55,0c0.1-1.44,0.19-2.7,0.3-4.15C344.34,423.58,344.04,427.92,348.11,426.56z
		 M296.93,422.31c2.56,1.35,2.38,5.55,6.41,4.27c-0.95-1.43-1.89-2.83-2.88-4.3c1.84-1.13,2.61-2.63,1.89-4.48
		c-0.74-1.91-2.49-2.27-4.41-2.2c-1.19,0.04-2.39,0.01-3.69,0.01c0,3.83,0,7.38,0,10.98c0.88,0,1.62,0,2.4,0
		C296.74,425.19,296.82,423.97,296.93,422.31z M386.82,424.08c-0.08,0.42-0.15,0.83-0.23,1.25c1.16,0.6,2.27,1.39,3.5,1.77
		c1.92,0.59,4.29-0.61,4.82-2.21c0.64-1.92-0.2-3.66-2.23-4.62c-0.29-0.14-0.65-0.2-0.87-0.4c-0.66-0.59-1.27-1.24-1.9-1.86
		c0.85,0.07,1.7,0.14,2.54,0.2c0.15,0.01,0.31-0.03,0.59-0.05c0.38-0.45,0.81-0.96,1.39-1.66c-0.92-0.42-1.61-0.81-2.35-1.07
		c-1.83-0.62-4.1,0.23-4.78,1.74c-0.81,1.81-0.01,3.73,1.98,4.67c0.43,0.21,0.98,0.26,1.33,0.54c0.59,0.49,1.06,1.11,1.58,1.68
		c-0.87,0.05-1.75,0.15-2.62,0.15C388.66,424.21,387.74,424.13,386.82,424.08z M312.11,415.79c-2.25,0-4.39,0-6.51,0
		c0,3.73,0,7.27,0,10.9c2.25,0,4.34,0,6.55,0c0-0.74,0-1.37,0-2.1c-1.33-0.08-2.51-0.15-3.88-0.23c0.05-0.83,0.09-1.48,0.14-2.14
		c1.22-0.1,2.24-0.18,3.36-0.27c-0.05-0.77-0.08-1.36-0.12-1.99c-1.2-0.1-2.23-0.18-3.2-0.26c-0.59-2.01,0.78-1.84,1.9-1.77
		C311.9,418.03,312.72,417.61,312.11,415.79z M321.35,419.83c-0.85,0-1.52,0.12-2.12-0.04c-0.5-0.13-0.9-0.57-1.35-0.87
		c0.43-0.34,0.82-0.88,1.3-0.97c0.84-0.16,1.74-0.04,2.7-0.04c0-0.87,0-1.51,0-2.12c-2.31,0-4.45,0-6.53,0c0,3.74,0,7.29,0,10.88
		c2.27,0,4.36,0,6.53,0c0-0.75,0-1.39,0-1.84c-1.31-1.02-4.52,0.99-3.89-2.63c1.19-0.08,2.22-0.15,3.37-0.22
		C321.35,421.3,321.35,420.71,321.35,419.83z M385.09,417.33c0-0.3,0-0.9,0-1.58c-2.26,0-4.41,0-6.63,0c0,3.7,0,7.26,0,10.9
		c0.83,0,1.52,0,2.34,0c0.12-1.54,0.23-2.98,0.35-4.45c1.24-0.09,2.27-0.16,3.48-0.24c-0.06-0.78-0.11-1.42-0.11-1.44
		c-1.47-0.71-2.48-1.2-3.48-1.69C382.26,418.39,383.48,417.93,385.09,417.33z M337.33,389.72c-4.47,4.48-8.71,8.73-12.05,12.08
		c2.78-2.24,6.6-5.24,10.33-8.36c1.32-1.1,2.2-1.01,3.49,0.08c3.64,3.08,7.42,6.02,10.5,8.5
		C345.96,398.37,341.76,394.16,337.33,389.72z M333.3,369.8c-2.06-2.08-3.33-2.06-6.89,0c2.05,4.02,5.41,2.38,8.56,1.62
		c-1.19-0.22-2.39-0.44-3.58-0.66c0-0.14,0-0.28,0-0.42C332.01,370.16,332.63,369.99,333.3,369.8z M338.18,400.26
		c0,1.11,0,2.21,0,3.34c1.22,0,2.32,0,3.52,0c0-1.17,0-2.21,0-3.34C340.57,400.26,339.61,400.26,338.18,400.26z M336.5,400.36
		c-1.34,0-2.42,0-3.52,0c0,1.17,0,2.15,0,3.21c1.25,0,2.33,0,3.52,0C336.5,402.45,336.5,401.47,336.5,400.36z M333,408.68
		c1.26,0,2.34,0,3.42,0c0-1.18,0-2.21,0-3.2c-1.27,0-2.35,0-3.42,0C333,406.66,333,407.63,333,408.68z M375.23,430.37
		c-0.64,0.97-1.3,1.52-1.25,2.02c0.05,0.53,0.76,1,1.18,1.5c0.5-0.42,1.4-0.84,1.4-1.27C376.56,432.02,375.89,431.42,375.23,430.37z
		 M307.77,397.42c1.09-1.42,1.74-2.26,2.52-3.28c-1-0.18-1.73-0.32-2.85-0.52C307.55,394.88,307.63,395.84,307.77,397.42z
		 M367.09,393.43c-1.27,0.41-1.99,0.65-2.79,0.91c0.81,0.93,1.48,1.72,2.56,2.97C366.95,395.79,367.01,394.79,367.09,393.43z"/>
	<path class="st1" d="M337.54,372.02c2.13,2.33,4.26,4.65,6.4,6.98c0.2-0.13,0.41-0.27,0.61-0.4c-0.09-0.38-0.19-0.76-0.28-1.14
		l0,0.01c1.98,1.88,3.85,0.23,5.79-0.34c-0.67-0.1-1.34-0.21-2.07-0.32c1.84-2.09,2.84-2.12,6.9-0.32c-1.46,2.66-2.8,3.18-5.88,2.61
		c-1.25-0.23-2.58-0.04-3.87-0.04c-0.19,0.3-0.38,0.6-0.57,0.9c1.98,1.68,3.96,3.37,5.97,5.03c0.02,0.02,0.39-0.35,0.59-0.54
		c0,0-0.03,0.03-0.03,0.03c1.77,1.76,3.52-0.12,5.34-0.21c-0.55-0.17-1.09-0.35-1.64-0.52c1.52-2.28,2.83-2.36,6.82-0.38
		c-1.37,2.62-2.64,3.16-5.59,2.6c-1.28-0.24-2.61-0.22-3.91-0.32c-0.06,0.2-0.12,0.41-0.18,0.61c1.85,1.78,3.69,3.56,6.06,5.84
		c-0.26-2-0.43-3.33-0.61-4.78c0.88-0.22,1.64-0.4,2.79-0.69c0,1.22,0,2.25,0,3.29c-0.23,0.12-0.46,0.23-0.69,0.35
		c-0.3-0.5-0.6-1-0.9-1.49c-0.15,0.05-0.3,0.09-0.44,0.14c0.14,1.06,0.28,2.12,0.44,3.28c1.75-0.27,3.21-0.5,4.67-0.73
		c0.01-0.15,0.03-0.3,0.04-0.45c-0.52-0.19-1.04-0.38-1.71-0.63c0.33-0.36,0.56-0.77,0.92-0.99c2.19-1.32,3.97-0.02,6.04,0.8
		c-0.92,1.81-2.12,2.91-4.18,2.75c-1.65-0.13-3.29-0.34-5.14-0.05c1.96,1.51,3.92,3.01,5.89,4.52c-0.16,0.21-0.31,0.43-0.47,0.64
		c-0.07-0.71-0.14-1.42-0.21-2.13c0.07-0.02,0.14-0.04,0.22-0.06c0.31,1.04,0.63,2.08,0.97,3.22c1.64-0.29,3.19-0.57,4.74-0.84
		c0-0.13,0-0.26,0-0.39c-0.64-0.17-1.27-0.34-1.99-0.53c2.01-2.05,3.29-2.08,6.82-0.2c-1.76,4.5-5.82,1.83-8.97,2.49
		c1.79,1.66,3.42,3.17,5.11,4.72c-0.07-1.02-0.14-2.12-0.23-3.4c0.86-0.15,1.62-0.28,2.61-0.45c0,1.09,0,2.01,0,3.27
		c-0.79-0.48-1.21-0.74-1.92-1.17c0.11,1.24,0.2,2.2,0.3,3.33c1.82-0.29,3.36-0.54,5.54-0.89c-1.11-0.51-1.68-0.76-2.25-1.02
		c2.01-2,3.03-1.99,6.66,0.09c-1.81,4-5.43,2.15-8.43,2.22c-0.08,0.22-0.15,0.45-0.23,0.67c1.29,0.6,2.59,1.19,3.77,1.74
		c-2.77,0.63-4.85-0.35-6.91-2.43c-7.02-7.07-14.23-13.97-21.45-20.85c-3.69-3.52-7.55-6.86-11.43-10.38
		c-3.66,2.04-5.49,6.45-10.21,7.28c0.82-0.9,1.64-1.8,2.95-3.23c-1.92,0-3.3-0.19-4.59,0.04c-2.95,0.52-4.3,0-5.71-2.57
		c3.63-1.87,4.72-1.87,6.82,0.17c-0.76,0.14-1.4,0.26-2.04,0.38c-0.01,0.13-0.03,0.26-0.04,0.38c1.52,0.33,3.04,0.66,4.88,1.06
		c0.25-1.1,0.49-2.16,0.73-3.23c-0.15-0.06-0.3-0.12-0.44-0.19c-0.39,0.4-0.77,0.8-1.61,1.66c0-1.61,0-2.66,0-3.88
		c0.95,0.22,1.64,0.39,2.61,0.62c-0.22,1.66-0.44,3.31-0.66,4.96c0.17,0.12,0.34,0.25,0.51,0.37c2.35-2.27,4.7-4.54,7.06-6.81
		C337.61,372.1,337.54,372.02,337.54,372.02z"/>
	<path class="st1" d="M297.41,408.69c1.17-0.49,2.48-1.03,3.78-1.57c-0.05-0.23-0.1-0.46-0.15-0.69c-2.94-0.37-6.7,1.79-8.45-2.26
		c3.19-2.11,4.46-2.16,6.68-0.15c-0.65,0.2-1.21,0.38-1.77,0.56c-0.02,0.15-0.04,0.31-0.06,0.46c1.55,0.28,3.09,0.56,4.89,0.88
		c0.25-1.26,0.48-2.4,0.7-3.54c-0.15-0.05-0.3-0.11-0.45-0.16c-0.38,0.5-0.76,1-1.58,2.09c-0.17-1.57-0.28-2.54-0.4-3.73
		c1.06,0.08,1.75,0.14,2.64,0.21c0.07,1.13,0.14,2.2,0.2,3.18c1.5-1.39,3.05-2.83,4.72-4.37c-2.92-0.61-6.84,1.99-8.74-2.2
		c2.36-2.02,4.43-2.16,6.85-0.23c-0.72,0.26-1.32,0.48-2.59,0.94c2.19,0.42,3.77,0.73,5.48,1.06c0.21-1.14,0.4-2.18,0.58-3.22
		c0.12,0.02,0.25,0.03,0.37,0.05c-0.09,0.62-0.19,1.24-0.27,1.78c1.69-1.66,3.4-3.35,5.22-5.15c-2.74-0.78-6.94,2.32-8.87-2.12
		c2.81-2.11,4.55-2.19,6.84-0.12c-0.65,0.19-1.2,0.35-1.75,0.51c-0.02,0.15-0.03,0.3-0.05,0.45c0.71,0.15,1.41,0.3,2.12,0.44
		c0.79,0.15,1.58,0.29,2.6,0.48c0.22-1.15,0.43-2.24,0.73-3.8c-0.83,0.68-1.31,1.08-2.17,1.78c-0.08-1.29-0.14-2.27-0.22-3.51
		c1.1,0.2,1.85,0.34,2.8,0.51c-0.15,1.48-0.29,2.85-0.43,4.25c1.9-1.87,3.76-3.7,5.93-5.83c-1.38,0.09-2.63,0.03-3.81,0.27
		c-3.01,0.61-4.02,0.24-5.82-2.39c3.45-2.12,4.55-2.14,7.03,0.02c-0.69,0.25-1.28,0.47-2.33,0.85c1.94,0.37,3.45,0.67,5.22,1.01
		c0.12-1.13,0.22-2.1,0.37-3.56c-0.72,0.65-1.11,1-1.88,1.69c-0.11-1.36-0.19-2.34-0.27-3.45c1.06,0,1.76,0,2.82,0
		c-0.17,1.64-0.33,3.21-0.52,5.03c0.69-0.27,1.17-0.46,2.31-0.91c-0.76,1.41-1.09,2.55-1.83,3.3c-3.09,3.11-6.31,6.11-9.48,9.15
		c-3.23,3.09-6.58,6.08-9.67,9.3C302.65,408.13,300.51,409.6,297.41,408.69z"/>
	<path class="st1" d="M336.02,385.67c0.72-1.07,1.64-2.81,1.78-5.05c0.05-0.73,0-1.39-0.09-1.98c8.07,7.76,16.13,15.53,24.2,23.29
		c2.35,2.26,4.7,4.53,7.06,6.79c-2.42,0.07-4.83,0.14-7.25,0.21C353.15,401.18,344.59,393.43,336.02,385.67z"/>
	<path class="st1" d="M391.05,454.81"/>
	<path class="st1" d="M337.71,378.65c1.08,1.33,2.16,2.66,3.23,4c-9.23,8.76-18.46,17.52-27.69,26.27
		c-2.63-0.03-5.26-0.06-7.88-0.08C316.15,398.77,326.93,388.71,337.71,378.65z"/>
	<path class="st1" d="M335.63,426.8c-4.81,0.26-4.89-4.71-8.16-6.48c0,2.19,0,4.24,0,6.33c-1.08,0-1.85,0-2.72,0
		c0-3.69,0-7.25,0-10.98c5.04-0.56,4.98,4.76,8.38,6.35c0-2.09,0-4.08,0-6.21c0.93-0.08,1.62-0.14,2.51-0.22
		C335.63,419.35,335.63,422.97,335.63,426.8z"/>
	<path class="st1" d="M291.2,420.87c0.07,3.61-1.82,5.89-5.04,6.34c-2.52,0.36-5.31-1.44-6.18-3.98c-0.99-2.87,0.33-6.16,2.98-7.43
		c2.82-1.35,5.5-0.56,7.67,2.4c-0.63,0.42-1.26,0.85-1.85,1.24c-2.72-1.97-4.44-2.06-5.73-0.39c-1.16,1.5-0.97,3.82,0.54,4.84
		c1.61,1.09,3.13,0.96,4.3-0.52c-0.83-0.68-1.58-1.3-2.33-1.92c0.15-0.2,0.3-0.39,0.45-0.59
		C287.69,420.87,289.38,420.87,291.2,420.87z"/>
	<path class="st1" d="M375.41,421.32c-0.05,3.28-2.74,5.98-5.92,5.92c-3.22-0.06-5.81-2.76-5.8-6.05c0-3.38,2.8-6.17,6.06-6.04
		C372.95,415.28,375.46,418.02,375.41,421.32z M372.83,421.29c0.05-1.83-1.38-3.37-3.18-3.42c-1.86-0.05-3.28,1.34-3.33,3.24
		c-0.05,1.89,1.32,3.38,3.14,3.42C371.29,424.57,372.78,423.14,372.83,421.29z"/>
	<path class="st1" d="M355.56,415.15c3.13-0.04,5.9,2.71,6,5.94c0.09,3.14-2.61,6.03-5.77,6.15c-0.45-0.01-1.2-0.08-1.99-0.4
		c-3.29-1.34-4.28-5.85-4.23-5.87c0.01,0,0.03,0.03,0.13,0.22C349.71,417.94,352.37,415.2,355.56,415.15z M358.81,421.39
		c0.09-1.98-1.15-3.42-3.01-3.52c-1.91-0.1-3.32,1.2-3.42,3.14c-0.1,1.95,1.17,3.42,3.02,3.52
		C357.33,424.63,358.72,423.34,358.81,421.39z"/>
	<path class="st1" d="M348.11,426.56c-4.07,1.36-3.78-2.98-6.32-4.12c-0.1,1.46-0.19,2.71-0.3,4.15c-0.8,0-1.62,0-2.55,0
		c0-3.62,0-7.17,0-10.98c1.31,0,2.51,0.04,3.7-0.01c2-0.08,3.79,0.28,4.57,2.31c0.75,1.93-0.22,3.3-1.97,4.37
		C346.24,423.75,347.17,425.15,348.11,426.56z M341.71,420.73c1.27-0.54,2.11-0.9,2.95-1.25c-0.22-0.45-0.33-1.15-0.68-1.29
		c-0.66-0.25-1.45-0.17-2.27-0.23C341.71,418.86,341.71,419.44,341.71,420.73z"/>
	<path class="st1" d="M296.93,422.31c-0.11,1.67-0.19,2.89-0.28,4.28c-0.78,0-1.52,0-2.4,0c0-3.6,0-7.15,0-10.98
		c1.3,0,2.5,0.04,3.69-0.01c1.92-0.07,3.67,0.29,4.41,2.2c0.72,1.85-0.05,3.35-1.89,4.48c0.98,1.47,1.92,2.87,2.88,4.3
		C299.31,427.86,299.49,423.66,296.93,422.31z M296.49,419.54c0.28,0.36,0.56,0.73,0.84,1.09c0.88-0.43,1.75-0.87,2.63-1.3
		c-0.6-0.47-1.25-1.36-1.78-1.3C297.56,418.1,297.05,419,296.49,419.54z"/>
	<path class="st1" d="M386.82,424.08c0.92,0.05,1.84,0.14,2.76,0.13c0.87,0,1.75-0.1,2.62-0.15c-0.52-0.57-0.99-1.19-1.58-1.68
		c-0.35-0.29-0.9-0.34-1.33-0.54c-1.99-0.95-2.8-2.87-1.98-4.67c0.68-1.51,2.94-2.36,4.78-1.74c0.74,0.25,1.43,0.64,2.35,1.07
		c-0.59,0.7-1.02,1.21-1.39,1.66c-0.28,0.03-0.43,0.06-0.59,0.05c-0.85-0.06-1.7-0.14-2.54-0.2c0.63,0.62,1.24,1.27,1.9,1.86
		c0.22,0.2,0.58,0.26,0.87,0.4c2.03,0.96,2.87,2.7,2.23,4.62c-0.53,1.6-2.9,2.81-4.82,2.21c-1.24-0.38-2.34-1.17-3.5-1.77
		C386.67,424.91,386.74,424.49,386.82,424.08z"/>
	<path class="st1" d="M312.11,415.79c0.61,1.82-0.21,2.24-1.78,2.14c-1.12-0.07-2.48-0.24-1.9,1.77c0.97,0.08,2,0.16,3.2,0.26
		c0.04,0.63,0.08,1.22,0.12,1.99c-1.12,0.09-2.14,0.17-3.36,0.27c-0.04,0.66-0.08,1.31-0.14,2.14c1.36,0.08,2.55,0.15,3.88,0.23
		c0,0.72,0,1.36,0,2.1c-2.21,0-4.29,0-6.55,0c0-3.62,0-7.17,0-10.9C307.72,415.79,309.86,415.79,312.11,415.79z"/>
	<path class="st1" d="M321.35,419.83c0,0.88,0,1.47,0,2.16c-1.15,0.08-2.18,0.14-3.37,0.22c-0.63,3.62,2.58,1.61,3.89,2.63
		c0,0.45,0,1.09,0,1.84c-2.17,0-4.26,0-6.53,0c0-3.59,0-7.14,0-10.88c2.07,0,4.22,0,6.53,0c0,0.61,0,1.25,0,2.12
		c-0.96,0-1.86-0.11-2.7,0.04c-0.48,0.09-0.87,0.63-1.3,0.97c0.45,0.3,0.85,0.75,1.35,0.87
		C319.83,419.95,320.5,419.83,321.35,419.83z"/>
	<path class="st1" d="M385.09,417.33c-1.61,0.6-2.83,1.05-4.06,1.51c1.01,0.49,2.01,0.98,3.48,1.69c0,0.02,0.05,0.66,0.11,1.44
		c-1.21,0.08-2.25,0.16-3.48,0.24c-0.11,1.47-0.23,2.91-0.35,4.45c-0.82,0-1.51,0-2.34,0c0-3.64,0-7.2,0-10.9c2.22,0,4.38,0,6.63,0
		C385.09,416.44,385.09,417.03,385.09,417.33z"/>
	<path class="st1" d="M337.33,389.72c4.43,4.44,8.63,8.65,12.26,12.29c-3.08-2.48-6.85-5.42-10.5-8.5
		c-1.28-1.08-2.17-1.18-3.49-0.08c-3.72,3.12-7.55,6.13-10.33,8.36C328.62,398.45,332.86,394.19,337.33,389.72z"/>
	<path class="st1" d="M337.54,372.02c0,0,0.08,0.08,0.08,0.08c-0.33-1.33-0.67-2.66-1.07-4.23c-0.44,0.63-0.8,1.14-1.19,1.7
		c-1.33-2-1.26-2.47,0.34-4.69c1.17,0,2,0,3.45,0c0.26,1.12,0.64,2.77,1.03,4.43c-0.27,0.08-0.53,0.17-0.8,0.25
		c-0.44-0.53-0.87-1.05-1.31-1.58c-0.15,0.05-0.29,0.11-0.44,0.16c0.24,1.17,0.49,2.33,0.73,3.5c0,0-0.03-0.02-0.03-0.02
		C338.07,371.76,337.8,371.89,337.54,372.02z"/>
	<path class="st1" d="M333.3,369.8c-0.68,0.19-1.3,0.36-1.91,0.53c0,0.14,0,0.28,0,0.42c1.19,0.22,2.39,0.44,3.58,0.66
		c-3.15,0.76-6.52,2.4-8.56-1.62C329.97,367.74,331.24,367.72,333.3,369.8z"/>
	<path class="st1" d="M338.37,371.65c1.56-0.28,3.13-0.55,5.22-0.92c-0.99-0.49-1.54-0.76-2.1-1.03c2.02-1.95,3.15-1.93,6.77,0.15
		c-1.26,1.95-2.8,3.07-5.36,2.47c-1.48-0.35-3.03-0.46-4.55-0.68C338.33,371.62,338.37,371.65,338.37,371.65z"/>
	<path class="st2" d="M338.18,400.26c1.43,0,2.38,0,3.52,0c0,1.13,0,2.17,0,3.34c-1.21,0-2.3,0-3.52,0
		C338.18,402.47,338.18,401.37,338.18,400.26z"/>
	<path class="st2" d="M336.5,400.36c0,1.1,0,2.08,0,3.21c-1.19,0-2.27,0-3.52,0c0-1.06,0-2.04,0-3.21
		C334.08,400.36,335.17,400.36,336.5,400.36z"/>
	<path class="st2" d="M333,408.4c0-1.05,0-2.02,0-3.2c1.07,0,2.15,0,3.42,0c0,0.99,0,2.02,0,3.2
		C335.34,408.4,334.26,408.4,333,408.4z"/>
	<path class="st1" d="M351.13,384.46c-0.09-0.77-0.27-1.55-0.25-2.32c0.02-0.69,0.08-1.52,0.48-2.01c0.22-0.27,1.57-0.19,1.75,0.1
		c0.36,0.59,0.32,1.43,0.35,2.17c0.01,0.26-0.26,0.54-0.54,1.06c-0.49-0.67-0.87-1.18-1.43-1.95c-0.15,1.19-0.26,2.07-0.37,2.97
		C351.11,384.49,351.13,384.46,351.13,384.46z"/>
	<path class="st1" d="M344.27,377.46c-0.03-0.54,0.09-1.14-0.12-1.6c-0.93-1.98-0.06-2.72,2.33-2.77c0,1.06,0,2.13,0,3.21
		c-0.15,0.04-0.31,0.09-0.46,0.13c-0.39-0.51-0.78-1.02-1.32-1.71C344.54,375.73,344.4,376.6,344.27,377.46
		C344.26,377.47,344.27,377.46,344.27,377.46z"/>
	<path class="st1" d="M307.77,397.42c-0.13-1.58-0.22-2.53-0.32-3.8c1.12,0.2,1.85,0.34,2.85,0.52
		C309.51,395.16,308.86,396,307.77,397.42z"/>
	<path class="st1" d="M367.09,393.43c-0.08,1.35-0.14,2.36-0.22,3.88c-1.08-1.25-1.76-2.04-2.56-2.97
		C365.1,394.08,365.82,393.85,367.09,393.43z"/>
	<path class="st3" d="M372.83,421.29c-0.05,1.85-1.54,3.28-3.36,3.24c-1.82-0.04-3.19-1.53-3.14-3.42c0.05-1.9,1.47-3.29,3.33-3.24
		C371.45,417.92,372.89,419.46,372.83,421.29z"/>
	<path class="st3" d="M358.81,421.39c-0.09,1.95-1.48,3.24-3.4,3.14c-1.85-0.1-3.12-1.57-3.02-3.52c0.1-1.94,1.51-3.24,3.42-3.14
		C357.66,417.96,358.9,419.41,358.81,421.39z"/>
	<path class="st3" d="M341.71,420.73c0-1.29,0-1.88,0-2.77c0.82,0.06,1.62-0.02,2.27,0.23c0.35,0.13,0.46,0.84,0.68,1.29
		C343.82,419.84,342.98,420.19,341.71,420.73z"/>
	<path class="st3" d="M296.49,419.54c0.56-0.54,1.08-1.45,1.69-1.51c0.54-0.06,1.18,0.83,1.78,1.3c-0.88,0.43-1.75,0.87-2.63,1.3
		C297.05,420.27,296.77,419.91,296.49,419.54z"/>
	<path class="st2" d="M338.18,405.13c1.43,0,2.38,0,3.52,0c0,1.13,0,2.17,0,3.34c-1.21,0-2.3,0-3.52,0
		C338.18,407.34,338.18,406.24,338.18,405.13z"/>
</g>
</svg>
